<mxfile host="app.diagrams.net" modified="2024-03-03T12:18:17.864Z" agent="Mozilla/5.0 (Windows NT 10.0; Win64; x64) AppleWebKit/537.36 (KHTML, like Gecko) Chrome/122.0.0.0 Safari/537.36" etag="nvzU4TYuS46ivT4pxC88" version="23.1.5" type="device">
  <diagram name="Page-1" id="ygxW4MwAxJD1o_pFtN8P">
    <mxGraphModel dx="1889" dy="537" grid="1" gridSize="10" guides="1" tooltips="1" connect="1" arrows="1" fold="1" page="1" pageScale="1" pageWidth="827" pageHeight="1169" math="0" shadow="0">
      <root>
        <mxCell id="0" />
        <mxCell id="1" parent="0" />
        <mxCell id="j30TGDUFjX6P84d79FxC-1" value="" style="shape=crossbar;whiteSpace=wrap;html=1;rounded=1;strokeWidth=6;" vertex="1" parent="1">
          <mxGeometry x="21" y="150" width="774" height="30" as="geometry" />
        </mxCell>
        <mxCell id="j30TGDUFjX6P84d79FxC-2" value="&lt;b style=&quot;border-color: var(--border-color);&quot;&gt;&lt;font style=&quot;border-color: var(--border-color); font-size: 17px;&quot;&gt;03.03.24&lt;/font&gt;&lt;/b&gt;" style="text;html=1;align=center;verticalAlign=middle;resizable=0;points=[];autosize=1;strokeColor=none;fillColor=none;" vertex="1" parent="1">
          <mxGeometry x="-19" y="110" width="90" height="30" as="geometry" />
        </mxCell>
        <mxCell id="j30TGDUFjX6P84d79FxC-3" value="&lt;b&gt;&lt;font style=&quot;font-size: 17px;&quot;&gt;Now&lt;/font&gt;&lt;/b&gt;" style="text;html=1;align=center;verticalAlign=middle;resizable=0;points=[];autosize=1;strokeColor=none;fillColor=none;" vertex="1" parent="1">
          <mxGeometry x="-9" y="190" width="60" height="30" as="geometry" />
        </mxCell>
        <mxCell id="j30TGDUFjX6P84d79FxC-4" value="" style="endArrow=none;html=1;rounded=0;strokeWidth=6;strokeColor=#33FF33;" edge="1" parent="1">
          <mxGeometry width="50" height="50" relative="1" as="geometry">
            <mxPoint x="161" y="180" as="sourcePoint" />
            <mxPoint x="161" y="150" as="targetPoint" />
          </mxGeometry>
        </mxCell>
        <mxCell id="j30TGDUFjX6P84d79FxC-5" value="&lt;b style=&quot;border-color: var(--border-color);&quot;&gt;&lt;font style=&quot;border-color: var(--border-color); font-size: 17px;&quot;&gt;30.04.24&lt;/font&gt;&lt;/b&gt;" style="text;html=1;align=center;verticalAlign=middle;resizable=0;points=[];autosize=1;strokeColor=none;fillColor=none;" vertex="1" parent="1">
          <mxGeometry x="117" y="110" width="90" height="30" as="geometry" />
        </mxCell>
        <mxCell id="j30TGDUFjX6P84d79FxC-6" value="&lt;b&gt;&lt;font style=&quot;font-size: 17px;&quot;&gt;setup done &lt;br&gt;and running&lt;/font&gt;&lt;/b&gt;" style="text;html=1;align=center;verticalAlign=middle;resizable=0;points=[];autosize=1;strokeColor=none;fillColor=none;" vertex="1" parent="1">
          <mxGeometry x="102" y="180" width="120" height="50" as="geometry" />
        </mxCell>
        <mxCell id="j30TGDUFjX6P84d79FxC-7" value="" style="endArrow=none;html=1;rounded=0;strokeWidth=6;strokeColor=#33FF33;" edge="1" parent="1">
          <mxGeometry width="50" height="50" relative="1" as="geometry">
            <mxPoint x="321" y="180" as="sourcePoint" />
            <mxPoint x="321" y="150" as="targetPoint" />
          </mxGeometry>
        </mxCell>
        <mxCell id="j30TGDUFjX6P84d79FxC-8" value="&lt;b style=&quot;border-color: var(--border-color);&quot;&gt;&lt;font style=&quot;border-color: var(--border-color); font-size: 17px;&quot;&gt;15.06.24&lt;/font&gt;&lt;/b&gt;" style="text;html=1;align=center;verticalAlign=middle;resizable=0;points=[];autosize=1;strokeColor=none;fillColor=none;" vertex="1" parent="1">
          <mxGeometry x="277" y="110" width="90" height="30" as="geometry" />
        </mxCell>
        <mxCell id="j30TGDUFjX6P84d79FxC-9" value="&lt;span style=&quot;font-size: 17px;&quot;&gt;&lt;b&gt;Mask-System in VR &lt;br&gt;+&lt;br&gt;&amp;nbsp;tested with users&lt;/b&gt;&lt;/span&gt;" style="text;html=1;align=center;verticalAlign=middle;resizable=0;points=[];autosize=1;strokeColor=none;fillColor=none;" vertex="1" parent="1">
          <mxGeometry x="232" y="180" width="180" height="70" as="geometry" />
        </mxCell>
        <mxCell id="j30TGDUFjX6P84d79FxC-10" value="" style="endArrow=none;html=1;rounded=0;strokeWidth=6;strokeColor=#33FF33;" edge="1" parent="1">
          <mxGeometry width="50" height="50" relative="1" as="geometry">
            <mxPoint x="491" y="180" as="sourcePoint" />
            <mxPoint x="491" y="150" as="targetPoint" />
          </mxGeometry>
        </mxCell>
        <mxCell id="j30TGDUFjX6P84d79FxC-11" value="&lt;b style=&quot;border-color: var(--border-color);&quot;&gt;&lt;font style=&quot;border-color: var(--border-color); font-size: 17px;&quot;&gt;31.07.24&lt;/font&gt;&lt;/b&gt;" style="text;html=1;align=center;verticalAlign=middle;resizable=0;points=[];autosize=1;strokeColor=none;fillColor=none;" vertex="1" parent="1">
          <mxGeometry x="447" y="110" width="90" height="30" as="geometry" />
        </mxCell>
        <mxCell id="j30TGDUFjX6P84d79FxC-12" value="&lt;span style=&quot;font-size: 17px;&quot;&gt;&lt;b&gt;Task in MR done &lt;br&gt;+ &lt;br&gt;tested &lt;br&gt;+ &lt;br&gt;analyzed&lt;/b&gt;&lt;/span&gt;" style="text;html=1;align=center;verticalAlign=middle;resizable=0;points=[];autosize=1;strokeColor=none;fillColor=none;" vertex="1" parent="1">
          <mxGeometry x="412" y="180" width="160" height="120" as="geometry" />
        </mxCell>
        <mxCell id="j30TGDUFjX6P84d79FxC-13" value="" style="endArrow=none;html=1;rounded=0;strokeWidth=6;strokeColor=#33FF33;" edge="1" parent="1">
          <mxGeometry width="50" height="50" relative="1" as="geometry">
            <mxPoint x="641" y="180" as="sourcePoint" />
            <mxPoint x="641" y="150" as="targetPoint" />
          </mxGeometry>
        </mxCell>
        <mxCell id="j30TGDUFjX6P84d79FxC-14" value="&lt;b style=&quot;border-color: var(--border-color);&quot;&gt;&lt;font style=&quot;border-color: var(--border-color); font-size: 17px;&quot;&gt;04.08.24&lt;/font&gt;&lt;/b&gt;" style="text;html=1;align=center;verticalAlign=middle;resizable=0;points=[];autosize=1;strokeColor=none;fillColor=none;" vertex="1" parent="1">
          <mxGeometry x="597" y="110" width="90" height="30" as="geometry" />
        </mxCell>
        <mxCell id="j30TGDUFjX6P84d79FxC-16" value="&lt;b style=&quot;border-color: var(--border-color);&quot;&gt;&lt;font style=&quot;border-color: var(--border-color); font-size: 17px;&quot;&gt;04.09.24&lt;/font&gt;&lt;/b&gt;" style="text;html=1;align=center;verticalAlign=middle;resizable=0;points=[];autosize=1;strokeColor=none;fillColor=none;" vertex="1" parent="1">
          <mxGeometry x="747" y="110" width="90" height="30" as="geometry" />
        </mxCell>
        <mxCell id="j30TGDUFjX6P84d79FxC-17" value="&lt;span style=&quot;font-size: 17px;&quot;&gt;&lt;b&gt;endabgabe&lt;br&gt;&lt;/b&gt;&lt;/span&gt;(1. Termin)" style="text;html=1;align=center;verticalAlign=middle;resizable=0;points=[];autosize=1;strokeColor=none;fillColor=none;" vertex="1" parent="1">
          <mxGeometry x="737" y="180" width="110" height="50" as="geometry" />
        </mxCell>
        <mxCell id="j30TGDUFjX6P84d79FxC-18" value="&lt;p style=&quot;line-height: 120%;&quot;&gt;&lt;font size=&quot;1&quot; color=&quot;#33ff33&quot;&gt;&lt;b style=&quot;font-size: 29px;&quot;&gt;Buffer&lt;/b&gt;&lt;/font&gt;&lt;/p&gt;" style="text;html=1;align=center;verticalAlign=middle;resizable=0;points=[];autosize=1;fillStyle=solid;opacity=60;rotation=-15;flipH=1;flipV=0;imageWidth=24;imageHeight=24;rounded=0;shadow=0;glass=0;fillColor=none;horizontal=1;fontStyle=0;labelBackgroundColor=default;" vertex="1" parent="1">
          <mxGeometry x="671" y="137" width="110" height="60" as="geometry" />
        </mxCell>
        <mxCell id="j30TGDUFjX6P84d79FxC-15" value="&lt;span style=&quot;font-size: 17px;&quot;&gt;&lt;b&gt;my personal&lt;br&gt;&amp;nbsp;deadline&lt;/b&gt;&lt;/span&gt;" style="text;html=1;align=center;verticalAlign=middle;resizable=0;points=[];autosize=1;strokeColor=none;fillColor=none;" vertex="1" parent="1">
          <mxGeometry x="582" y="180" width="120" height="50" as="geometry" />
        </mxCell>
        <mxCell id="j30TGDUFjX6P84d79FxC-20" value="" style="shape=partialRectangle;whiteSpace=wrap;html=1;bottom=1;right=1;left=1;top=0;fillColor=none;routingCenterX=-0.5;strokeWidth=4;rotation=-180;strokeColor=#0066FF;" vertex="1" parent="1">
          <mxGeometry x="30" y="70" width="130" height="10" as="geometry" />
        </mxCell>
        <mxCell id="j30TGDUFjX6P84d79FxC-21" value="&lt;font size=&quot;1&quot; style=&quot;&quot; color=&quot;#0066ff&quot;&gt;&lt;b style=&quot;font-size: 14px;&quot;&gt;~2 Months&lt;/b&gt;&lt;/font&gt;" style="text;html=1;align=center;verticalAlign=middle;resizable=0;points=[];autosize=1;strokeColor=none;fillColor=none;" vertex="1" parent="1">
          <mxGeometry x="50" y="40" width="90" height="30" as="geometry" />
        </mxCell>
        <mxCell id="j30TGDUFjX6P84d79FxC-22" value="" style="shape=partialRectangle;whiteSpace=wrap;html=1;bottom=1;right=1;left=1;top=0;fillColor=none;routingCenterX=-0.5;strokeWidth=4;rotation=-180;strokeColor=#0066FF;" vertex="1" parent="1">
          <mxGeometry x="180" y="70" width="130" height="10" as="geometry" />
        </mxCell>
        <mxCell id="j30TGDUFjX6P84d79FxC-23" value="&lt;font size=&quot;1&quot; style=&quot;&quot; color=&quot;#0066ff&quot;&gt;&lt;b style=&quot;font-size: 14px;&quot;&gt;~1.5 Months&lt;/b&gt;&lt;/font&gt;" style="text;html=1;align=center;verticalAlign=middle;resizable=0;points=[];autosize=1;strokeColor=none;fillColor=none;" vertex="1" parent="1">
          <mxGeometry x="195" y="40" width="100" height="30" as="geometry" />
        </mxCell>
        <mxCell id="j30TGDUFjX6P84d79FxC-24" value="" style="shape=partialRectangle;whiteSpace=wrap;html=1;bottom=1;right=1;left=1;top=0;fillColor=none;routingCenterX=-0.5;strokeWidth=4;rotation=-180;strokeColor=#0066FF;" vertex="1" parent="1">
          <mxGeometry x="340" y="70" width="130" height="10" as="geometry" />
        </mxCell>
        <mxCell id="j30TGDUFjX6P84d79FxC-25" value="&lt;font size=&quot;1&quot; style=&quot;&quot; color=&quot;#0066ff&quot;&gt;&lt;b style=&quot;font-size: 14px;&quot;&gt;~1.5 Months&lt;/b&gt;&lt;/font&gt;" style="text;html=1;align=center;verticalAlign=middle;resizable=0;points=[];autosize=1;strokeColor=none;fillColor=none;" vertex="1" parent="1">
          <mxGeometry x="355" y="40" width="100" height="30" as="geometry" />
        </mxCell>
        <mxCell id="j30TGDUFjX6P84d79FxC-26" value="" style="shape=partialRectangle;whiteSpace=wrap;html=1;bottom=1;right=1;left=1;top=0;fillColor=none;routingCenterX=-0.5;strokeWidth=4;rotation=-180;strokeColor=#0066FF;" vertex="1" parent="1">
          <mxGeometry x="500" y="70" width="130" height="10" as="geometry" />
        </mxCell>
        <mxCell id="j30TGDUFjX6P84d79FxC-27" value="&lt;font size=&quot;1&quot; style=&quot;&quot; color=&quot;#0066ff&quot;&gt;&lt;b style=&quot;font-size: 14px;&quot;&gt;4 days&lt;/b&gt;&lt;/font&gt;" style="text;html=1;align=center;verticalAlign=middle;resizable=0;points=[];autosize=1;strokeColor=none;fillColor=none;" vertex="1" parent="1">
          <mxGeometry x="530" y="40" width="70" height="30" as="geometry" />
        </mxCell>
        <mxCell id="j30TGDUFjX6P84d79FxC-28" value="" style="shape=partialRectangle;whiteSpace=wrap;html=1;bottom=1;right=1;left=1;top=0;fillColor=none;routingCenterX=-0.5;strokeWidth=4;rotation=-180;strokeColor=#0066FF;" vertex="1" parent="1">
          <mxGeometry x="653" y="70" width="132" height="9" as="geometry" />
        </mxCell>
        <mxCell id="j30TGDUFjX6P84d79FxC-29" value="&lt;font size=&quot;1&quot; style=&quot;&quot; color=&quot;#0066ff&quot;&gt;&lt;b style=&quot;font-size: 14px;&quot;&gt;1 Month&lt;/b&gt;&lt;/font&gt;" style="text;html=1;align=center;verticalAlign=middle;resizable=0;points=[];autosize=1;strokeColor=none;fillColor=none;" vertex="1" parent="1">
          <mxGeometry x="678" y="40" width="80" height="30" as="geometry" />
        </mxCell>
        <mxCell id="j30TGDUFjX6P84d79FxC-30" value="" style="shape=partialRectangle;whiteSpace=wrap;html=1;bottom=1;right=1;left=1;top=0;fillColor=none;routingCenterX=-0.5;strokeWidth=4;rotation=0;strokeColor=#EA6B66;" vertex="1" parent="1">
          <mxGeometry x="48" y="320" width="720" height="20" as="geometry" />
        </mxCell>
        <mxCell id="j30TGDUFjX6P84d79FxC-31" value="&lt;font color=&quot;#ea6b66&quot; size=&quot;1&quot; style=&quot;&quot;&gt;&lt;b style=&quot;font-size: 14px;&quot;&gt;Write thesis in parallel, every milestone also marks its chapter done&lt;/b&gt;&lt;/font&gt;" style="text;html=1;align=center;verticalAlign=middle;resizable=0;points=[];autosize=1;strokeColor=none;fillColor=none;" vertex="1" parent="1">
          <mxGeometry x="170" y="350" width="470" height="30" as="geometry" />
        </mxCell>
      </root>
    </mxGraphModel>
  </diagram>
</mxfile>
